<?xml version="1.0" encoding="UTF-8" standalone="no"?>
<!-- Created with Inkscape (http://www.inkscape.org/) -->

<svg
   width="25.910925mm"
   height="25.910925mm"
   viewBox="0 0 25.910924 25.910925"
   version="1.1"
   id="svg1"
   xml:space="preserve"
   xmlns="http://www.w3.org/2000/svg"
   xmlns:svg="http://www.w3.org/2000/svg"><defs
     id="defs1"><clipPath
       clipPathUnits="userSpaceOnUse"
       id="clipPath2"><path
         d="M 0,595.28 H 841.89 V 0 H 0 Z"
         transform="translate(-420.77881,-273.75101)"
         id="path2" /></clipPath><clipPath
       clipPathUnits="userSpaceOnUse"
       id="clipPath4"><path
         d="M 0,595.28 H 841.89 V 0 H 0 Z"
         transform="translate(-425.06741,-320.32131)"
         id="path4" /></clipPath></defs><g
     id="layer1"
     transform="translate(-92.325574,-96.57195)"><circle
       style="display:inline;fill:#000000;fill-opacity:1;stroke:#ffffff;stroke-width:1.95;stroke-linecap:square;stroke-miterlimit:10;stroke-dasharray:none;stroke-opacity:1;paint-order:markers stroke fill"
       id="path5"
       cx="105.28104"
       cy="109.52741"
       r="11.980462" /><g
       id="layer1-3"
       transform="matrix(1.0047939,0,0,1.0047939,-0.49194795,-19.101567)"
       style="fill:#ffffff;fill-opacity:1;stroke:none;stroke-opacity:1"><path
         id="path1"
         d="m 0,0 c 7.131,0 12.019,4.885 11.819,13.145 h 3.237 C 15.322,2.837 8.654,-2.909 -0.265,-2.909 c -10.042,0 -14.467,5.812 -14.467,12.222 0,6.541 2.909,9.579 7.069,13.474 l 2.116,1.983 c 3.696,3.434 4.16,4.027 4.16,9.444 v 1.783 h 3.168 v -1.718 c 0,-6.737 -0.66,-7.791 -5.348,-11.886 L -6.341,19.95 C -9.71,17.039 -11.231,13.938 -11.231,9.707 -11.231,3.5 -7.135,0 0,0"
         style="fill:#ffffff;fill-opacity:1;fill-rule:nonzero;stroke:none;stroke-opacity:1"
         transform="matrix(0.35277776,0,0,-0.35277776,105.20962,136.41645)"
         clip-path="url(#clipPath2)" /><path
         id="path3"
         d="m 0,0 c 0,-2.277 -1.844,-4.126 -4.122,-4.126 -2.275,0 -4.124,1.849 -4.124,4.126 0,2.274 1.849,4.122 4.124,4.122 C -1.844,4.122 0,2.274 0,0"
         style="fill:#ffffff;fill-opacity:1;fill-rule:nonzero;stroke:none;stroke-opacity:1"
         transform="matrix(0.35277776,0,0,-0.35277776,106.72254,119.98748)"
         clip-path="url(#clipPath4)" /></g></g></svg>
